<?xml version="1.0" encoding="UTF-8"?>
<svg width="752pt" height="752pt" version="1.1" viewBox="0 0 752 752" xmlns="http://www.w3.org/2000/svg">
 <path d="m376 162.89c-117.53 0-213.11 95.582-213.11 213.11 0 117.53 95.582 213.11 213.11 213.11 117.53 0 213.11-95.582 213.11-213.11 0-117.53-95.582-213.11-213.11-213.11zm0 28.414c102.18 0 184.7 82.523 184.7 184.7 0 102.18-82.523 184.7-184.7 184.7-102.17 0-184.7-82.523-184.7-184.7 0-102.17 82.523-184.7 184.7-184.7zm-105.67 89.98c-3.7656 0.19531-7.3047 1.8789-9.8281 4.6836-2.5273 2.8047-3.8359 6.4961-3.6406 10.266 0.19531 3.7656 1.8828 7.3047 4.6875 9.8281 2.8008 2.5273 6.4961 3.8359 10.262 3.6367h208.38c3.8047 0.054687 7.4688-1.418 10.18-4.0898 2.707-2.668 4.2305-6.3125 4.2305-10.117 0-3.8047-1.5234-7.4492-4.2305-10.117-2.7109-2.6719-6.375-4.1445-10.18-4.0898h-208.38c-0.49219-0.027344-0.98438-0.027344-1.4805 0zm0 80.508c-3.7656 0.19531-7.3047 1.8828-9.8281 4.6836-2.5273 2.8047-3.8359 6.4961-3.6406 10.266 0.19531 3.7695 1.8828 7.3047 4.6875 9.8281 2.8008 2.5273 6.4961 3.8359 10.262 3.6367h208.38c3.8047 0.054688 7.4688-1.418 10.18-4.0859 2.707-2.6719 4.2305-6.3164 4.2305-10.121 0-3.8008-1.5234-7.4453-4.2305-10.117-2.7109-2.668-6.375-4.1445-10.18-4.0898h-208.38c-0.49219-0.023438-0.98438-0.023438-1.4805 0zm0 80.512c-3.7656 0.19531-7.3047 1.8789-9.8281 4.6836-2.5273 2.8008-3.8359 6.4922-3.6406 10.262 0.19531 3.7695 1.8828 7.3047 4.6875 9.832 2.8008 2.5234 6.4961 3.832 10.262 3.6367h208.38c3.8047 0.050781 7.4688-1.4219 10.18-4.0898 2.707-2.6719 4.2305-6.3164 4.2305-10.117 0-3.8047-1.5234-7.4492-4.2305-10.121-2.7109-2.668-6.375-4.1406-10.18-4.0859h-208.38c-0.49219-0.027344-0.98438-0.027344-1.4805 0z"/>
</svg>
